<svg xmlns="http://www.w3.org/2000/svg" viewBox="0 0 48 48" width="48" height="48"><path fill="#D19E06" d="M25 6A19 19 0 1 0 25 44A19 19 0 1 0 25 6Z"/><path fill="#FFC107" d="M23 4A19 19 0 1 0 23 42A19 19 0 1 0 23 4Z"/><path fill="#FFE082" d="M23,8C14.7,8,8,14.7,8,23c0,8.3,6.7,15,15,15s15-6.7,15-15C38,14.7,31.3,8,23,8z M35.8,20.8l-2,0.3c-0.1-0.6-0.3-1.2-0.5-1.8l1.9-0.7C35.5,19.4,35.7,20.1,35.8,20.8z M34.4,16.8l-1.8,1c-0.3-0.5-0.6-1-1-1.5l1.6-1.2C33.7,15.5,34.1,16.1,34.4,16.8z M24,10l-0.2,2c-0.6,0-1.2,0-1.8,0l-0.2-2C22.6,10,23.3,10,24,10z M19.8,10.4l0.5,1.9c-0.6,0.1-1.2,0.3-1.7,0.6l-0.8-1.8C18.4,10.8,19.1,10.6,19.8,10.4z M15.9,12.1l1.1,1.7c-0.5,0.3-1,0.7-1.4,1.1l-1.4-1.5C14.7,13,15.3,12.5,15.9,12.1z M12.7,15l1.6,1.2c-0.4,0.5-0.7,1-1,1.5l-1.8-1C11.9,16.2,12.3,15.6,12.7,15z M10.7,18.8l1.9,0.6c-0.2,0.6-0.3,1.2-0.4,1.8l-2-0.3C10.3,20.2,10.5,19.5,10.7,18.8z M10,23l2,0c0,0.6,0.1,1.2,0.2,1.8l-2,0.3C10.1,24.5,10,23.7,10,23z M11.6,29.2c-0.3-0.6-0.6-1.3-0.9-2l1.9-0.7c0.2,0.6,0.4,1.1,0.7,1.7L11.6,29.2z M14.2,32.6c-0.5-0.5-1-1-1.5-1.6l1.6-1.2c0.4,0.5,0.8,0.9,1.2,1.3L14.2,32.6z M17.8,34.9c-0.7-0.3-1.3-0.6-1.9-1l1.1-1.7c0.5,0.3,1,0.6,1.6,0.9L17.8,34.9z M21.9,36c-0.7-0.1-1.4-0.2-2.1-0.3l0.5-1.9c0.6,0.1,1.2,0.2,1.8,0.3L21.9,36z M24.1,36l-0.2-2c0.6-0.1,1.2-0.2,1.8-0.3l0.5,1.9C25.5,35.8,24.8,35.9,24.1,36z M26.6,25.9c0,2.8-2.7,3.2-3.2,3.2v1.6h-1.3v-1.6c-0.4,0-3.5-0.4-3.5-3.8H21c0,0.4,0,2,1.8,2c1.5,0,1.5-1.2,1.5-1.4c0-2.6-5.2-1.5-5.2-5.5c0-2.5,2.2-3.2,3.2-3.2v-1.7h1.3v1.7c0.8,0.1,3,0.7,3,3.7h-2.3c0-0.6-0.2-1.9-1.5-1.9c-1.4,0-1.4,1.2-1.4,1.4C21.5,22.8,26.6,21.8,26.6,25.9z M25.7,12.3l0.5-1.9c0.7,0.2,1.4,0.4,2,0.7l-0.8,1.8C26.8,12.7,26.3,12.5,25.7,12.3z M28.2,34.9l-0.8-1.8c0.6-0.2,1.1-0.5,1.6-0.9l1.1,1.7C29.5,34.3,28.9,34.6,28.2,34.9z M29,13.8l1.1-1.7c0.6,0.4,1.2,0.8,1.7,1.3l-1.3,1.5C30,14.5,29.5,14.1,29,13.8z M31.8,32.6l-1.4-1.5c0.4-0.4,0.9-0.9,1.2-1.3l1.6,1.2C32.8,31.5,32.3,32.1,31.8,32.6z M34.4,29.2l-1.8-1c0.3-0.5,0.5-1.1,0.7-1.7l1.9,0.6C35.1,27.9,34.8,28.6,34.4,29.2z M33.9,24.8C34,24.2,34,23.6,34,23l1.7,0l0.3,0c0,0.8-0.1,1.5-0.2,2.2L33.9,24.8z"/></svg>